# xmcd CD database file
#
# Track frame offsets:
#	150
#	26627
#	50387
#	83332
#	102129
#	124360
#	154819
#	177305
#
# Disc length: 2892 seconds
#
# Revision: 0
# Processed by: cddbd v1.5.2PL0 Copyright (c) Steve Scherf et al.
# Submitted via: CDex 1.70beta2
#
DISCID=5b0b4a08
DTITLE=Red Mitchell trio - One long string
DYEAR=1969
DGENRE=Jazz
TTITLE0=One long strig
TTITLE1=Peggy
TTITLE2=Narbild
TTITLE3=Undertow
TTITLE4=Total tumult
TTITLE5=Stella by Starlight
TTITLE6=Pojken i grottan
TTITLE7=When y have you
EXTD=YEAR: 1969
EXTT0=
EXTT1=
EXTT2=
EXTT3=
EXTT4=
EXTT5=
EXTT6=
EXTT7=
PLAYORDER=
